<svg width="40" height="31" viewBox="0 0 40 31" fill="none" xmlns="http://www.w3.org/2000/svg">
<g clip-path="url(#clip0_47_18)">
<path d="M2.75389 10.221C2.40233 10.5221 1.96613 10.653 1.54296 10.6203C1.11652 10.5875 0.703113 10.3912 0.403633 10.0377L0.397123 10.0279C0.100899 9.67769 -0.0260541 9.23914 0.00649801 8.81695C0.0390501 8.38821 0.234363 7.97256 0.585925 7.67146L0.58918 7.66819C3.5384 5.12522 6.68619 3.20081 9.94139 1.9146C13.2226 0.618572 16.6146 -0.0261705 20.0325 0.00328473C23.4017 0.03274 26.7838 0.720029 30.0911 2.08479C33.2845 3.40373 36.4062 5.35759 39.3848 7.96602C39.4206 7.9922 39.4531 8.02166 39.4792 8.05111C39.7917 8.35221 39.9674 8.74822 39.9935 9.15405C40.0195 9.55987 39.8991 9.97552 39.6289 10.3159C39.6029 10.3552 39.5703 10.3912 39.5345 10.4239C39.235 10.7381 38.8411 10.9148 38.4375 10.941C38.0143 10.9705 37.5749 10.833 37.2298 10.5286C34.5378 8.16238 31.7285 6.39834 28.8704 5.21032C25.944 3.99283 22.9655 3.38409 20.0065 3.35791C17.0117 3.33173 14.0234 3.90774 11.1165 5.05977C8.21939 6.20852 5.40363 7.93656 2.75389 10.221ZM20 23.6526C21.0091 23.6526 21.9206 24.0649 22.5814 24.7293C23.2422 25.3937 23.6523 26.3134 23.6523 27.3247C23.6523 28.3392 23.2422 29.2556 22.5814 29.92C21.9206 30.5844 21.0058 30.9967 20 30.9967C18.9909 30.9967 18.0794 30.5844 17.4154 29.92C16.7545 29.2556 16.3444 28.3359 16.3444 27.3247C16.3444 26.3134 16.7545 25.3937 17.4154 24.7293C18.0794 24.0649 18.9909 23.6526 20 23.6526ZM13.6946 21.6562C13.3366 21.9474 12.8939 22.0685 12.4707 22.0227C12.067 21.9802 11.6764 21.7903 11.39 21.4631C11.3574 21.4303 11.3281 21.3943 11.3053 21.3583C11.0449 21.0081 10.9407 20.5892 10.9831 20.1834C11.0254 19.7776 11.2142 19.3848 11.5397 19.0968C11.569 19.0674 11.6016 19.0412 11.6341 19.0183C12.9362 17.9612 14.2969 17.1528 15.6933 16.6062C17.1094 16.0498 18.5644 15.7651 20.0325 15.7618C21.4811 15.7586 22.9264 16.0269 24.3522 16.58C25.7357 17.1168 27.0996 17.9252 28.4147 19.0052C28.7728 19.2965 28.9779 19.7088 29.0234 20.1343C29.0657 20.5598 28.9486 21.0049 28.6588 21.3649L28.6556 21.3682C28.3659 21.7249 27.959 21.9311 27.5325 21.9769C27.1094 22.0194 26.6667 21.9016 26.3086 21.6103C25.2864 20.7692 24.2415 20.1474 23.1966 19.735C22.1387 19.3161 21.0807 19.1132 20.0325 19.1165C18.9746 19.1197 17.9101 19.3357 16.8522 19.7579C15.7747 20.1834 14.7168 20.8216 13.6946 21.6562ZM8.40168 16.2495C8.37564 16.2757 8.34634 16.3018 8.31704 16.3215C7.98176 16.5964 7.56835 16.7175 7.16796 16.6946C6.75455 16.6684 6.3509 16.4884 6.04816 16.1611C6.01887 16.1349 5.99608 16.1055 5.97329 16.076C5.69986 15.7389 5.57941 15.3233 5.6022 14.9207C5.62824 14.492 5.81704 14.0731 6.1621 13.7654C8.37889 11.7919 10.6706 10.2995 13.0013 9.31114C15.3385 8.32275 17.7181 7.8351 20.1139 7.87765C22.4805 7.91692 24.8437 8.46676 27.1745 9.54678C29.4433 10.5974 31.6862 12.1519 33.8769 14.2269L33.9193 14.2662C34.2285 14.5771 34.388 14.9862 34.401 15.3986C34.4141 15.8273 34.2643 16.2593 33.9486 16.5964L33.9095 16.6389C33.597 16.9499 33.1933 17.1135 32.7832 17.1266C32.3568 17.1397 31.9271 16.9891 31.5918 16.6717C29.694 14.8716 27.7734 13.5331 25.8561 12.6298C23.9193 11.7199 21.9824 11.2585 20.0618 11.2257C18.112 11.193 16.1556 11.6021 14.2155 12.4334C12.2526 13.2811 10.306 14.5574 8.40168 16.2495Z" fill="white"/>
</g>
<defs>
<clipPath id="clip0_47_18">
<rect width="40" height="31" fill="white"/>
</clipPath>
</defs>
</svg>
