<svg width="36" height="36" viewBox="0 0 36 36" fill="none" xmlns="http://www.w3.org/2000/svg">
<path d="M27.6461 4.20215C27.3999 3.92086 27.2929 3.57187 27.3197 3.23329C27.3464 2.8921 27.507 2.56133 27.7959 2.32172L27.8039 2.31651C28.0902 2.07951 28.4488 1.97793 28.7939 2.00398C29.1444 2.03002 29.4842 2.18629 29.7304 2.46757L29.733 2.47018C31.8119 4.82982 33.3852 7.34834 34.4367 9.9528C35.4962 12.5781 36.0233 15.292 35.9992 18.0266C35.9751 20.7223 35.4133 23.4283 34.2975 26.0744C33.2193 28.6294 31.622 31.1271 29.4896 33.5102C29.4681 33.5388 29.4441 33.5649 29.42 33.5857C29.1738 33.8357 28.8501 33.9764 28.5183 33.9972C28.1866 34.0181 27.8468 33.9217 27.5685 33.7055C27.5364 33.6847 27.507 33.6586 27.4802 33.63C27.2234 33.3904 27.0789 33.0752 27.0575 32.7523C27.0334 32.4137 27.1458 32.0621 27.3946 31.786C29.329 29.6321 30.7712 27.3845 31.7424 25.0978C32.7377 22.7564 33.2353 20.3733 33.2568 18.0058C33.2782 15.6097 32.8073 13.2188 31.8655 10.893C30.9263 8.57504 29.5136 6.32218 27.6461 4.20215Z" fill="white"/>
<path d="M24.3308 11.1011C24.1932 10.9604 24.1334 10.7859 24.1483 10.6166C24.1633 10.4461 24.253 10.2807 24.4145 10.1609L24.419 10.1583C24.579 10.0398 24.7794 9.98897 24.9723 10.002C25.1682 10.015 25.3582 10.0931 25.4957 10.2338L25.4972 10.2351C26.6592 11.4149 27.5385 12.6742 28.1262 13.9764C28.7184 15.2891 29.013 16.646 28.9996 18.0133C28.9861 19.3611 28.6721 20.7142 28.0485 22.0372C27.4458 23.3147 26.553 24.5636 25.3611 25.7551C25.3492 25.7694 25.3357 25.7824 25.3223 25.7929C25.1847 25.9179 25.0037 25.9882 24.8183 25.9986C24.6329 26.009 24.4429 25.9608 24.2874 25.8528C24.2695 25.8423 24.253 25.8293 24.2381 25.815C24.0945 25.6952 24.0137 25.5376 24.0018 25.3761C23.9883 25.2069 24.0511 25.0311 24.1902 24.893C25.2714 23.8161 26.0775 22.6922 26.6203 21.5489C27.1766 20.3782 27.4548 19.1866 27.4667 18.0029C27.4787 16.8049 27.2155 15.6094 26.6891 14.4465C26.1642 13.2875 25.3746 12.1611 24.3308 11.1011Z" fill="white"/>
<rect y="12" width="5" height="13" rx="1" fill="white"/>
<path d="M7.5 12.9199C7.5 12.336 7.75513 11.7813 8.19842 11.4014L18.1984 2.82993C19.4958 1.71792 21.5 2.63973 21.5 4.34844V31.8851C21.5 33.5539 19.5766 34.4888 18.2644 33.4577L8.26436 25.6006C7.78178 25.2214 7.5 24.6417 7.5 24.0279V12.9199Z" fill="white"/>
</svg>
